<?xml version="1.0" encoding="UTF-8" standalone="no"?>
<!-- Created with Inkscape (http://www.inkscape.org/) -->

<svg
   width="100"
   height="100"
   viewBox="0 0 26.458333 26.458334"
   version="1.1"
   id="svg1"
   inkscape:version="1.3.2 (091e20e, 2023-11-25, custom)"
   sodipodi:docname="grid-lines.svg"
   inkscape:export-filename="grid-lines.png"
   inkscape:export-xdpi="96"
   inkscape:export-ydpi="96"
   xmlns:inkscape="http://www.inkscape.org/namespaces/inkscape"
   xmlns:sodipodi="http://sodipodi.sourceforge.net/DTD/sodipodi-0.dtd"
   xmlns="http://www.w3.org/2000/svg"
   xmlns:svg="http://www.w3.org/2000/svg">
  <sodipodi:namedview
     id="namedview1"
     pagecolor="#ffffff"
     bordercolor="#000000"
     borderopacity="0.25"
     inkscape:showpageshadow="2"
     inkscape:pageopacity="0.0"
     inkscape:pagecheckerboard="true"
     inkscape:deskcolor="#d1d1d1"
     inkscape:document-units="px"
     showgrid="true"
     inkscape:zoom="5.6568543"
     inkscape:cx="35.708892"
     inkscape:cy="53.651727"
     inkscape:window-width="1858"
     inkscape:window-height="1057"
     inkscape:window-x="54"
     inkscape:window-y="182"
     inkscape:window-maximized="1"
     inkscape:current-layer="layer1"
     inkscape:clip-to-page="true">
    <inkscape:grid
       id="grid1"
       units="px"
       originx="0.39687499"
       originy="0.39687499"
       spacingx="0.26458333"
       spacingy="0.26458333"
       empcolor="#0099e5"
       empopacity="0.30196078"
       color="#0099e5"
       opacity="0.14901961"
       empspacing="5"
       dotted="true"
       gridanglex="30"
       gridanglez="30"
       visible="true"
       enabled="true" />
  </sodipodi:namedview>
  <defs
     id="defs1">
    <inkscape:path-effect
       effect="tiling"
       id="path-effect3"
       is_visible="true"
       lpeversion="1"
       unit="px"
       seed="1;1"
       lpesatellites=""
       num_rows="20"
       num_cols="20"
       gapx="-0.26458333"
       gapy="-0.26458333"
       offset="0"
       offset_type="false"
       scale="0"
       rotate="0"
       mirrorrowsx="false"
       mirrorrowsy="false"
       mirrorcolsx="false"
       mirrorcolsy="false"
       mirrortrans="false"
       shrink_interp="false"
       split_items="false"
       link_styles="false"
       interpolate_scalex="false"
       interpolate_scaley="true"
       interpolate_rotatex="false"
       interpolate_rotatey="true"
       random_scale="false"
       random_rotate="false"
       random_gap_y="false"
       random_gap_x="false"
       transformorigin="matrix(0.01323258,0,0,0.01323258,-0.51586385,-0.58890149)" />
    <inkscape:path-effect
       effect="tiling"
       id="path-effect2"
       is_visible="true"
       lpeversion="1"
       unit="px"
       seed="1;1"
       lpesatellites=""
       num_rows="3"
       num_cols="3"
       gapx="-1"
       gapy="-1"
       offset="0"
       offset_type="false"
       scale="0"
       rotate="0"
       mirrorrowsx="false"
       mirrorrowsy="false"
       mirrorcolsx="false"
       mirrorcolsy="false"
       mirrortrans="false"
       shrink_interp="false"
       split_items="false"
       link_styles="false"
       interpolate_scalex="false"
       interpolate_scaley="true"
       interpolate_rotatex="false"
       interpolate_rotatey="true"
       random_scale="false"
       random_rotate="false"
       random_gap_y="false"
       random_gap_x="false"
       transformorigin="matrix(0.0264654,0,0,0.0264654,-1.0317602,-1.1778265)" />
    <inkscape:path-effect
       effect="tiling"
       id="path-effect1"
       is_visible="false"
       lpeversion="1"
       unit="px"
       seed="1;1"
       lpesatellites=""
       num_rows="3"
       num_cols="3"
       gapx="0"
       gapy="0"
       offset="0"
       offset_type="false"
       scale="0"
       rotate="0"
       mirrorrowsx="false"
       mirrorrowsy="false"
       mirrorcolsx="false"
       mirrorcolsy="false"
       mirrortrans="false"
       shrink_interp="false"
       split_items="false"
       link_styles="false"
       interpolate_scalex="false"
       interpolate_scaley="true"
       interpolate_rotatex="false"
       interpolate_rotatey="true"
       random_scale="false"
       random_rotate="false"
       random_gap_y="false"
       random_gap_x="false"
       transformorigin="" />
  </defs>
  <g
     inkscape:label="Layer 1"
     inkscape:groupmode="layer"
     id="layer1"
     transform="translate(0.39687499,0.39687499)">
    <path
       style="color:#000000;fill:#000000;stroke-linecap:square;stroke-miterlimit:1.9;-inkscape-stroke:none"
       d="m 38.984375,44.503906 1.4e-5,119.969054 H 158.95343 V 44.503922 Z M 58.97923,64.498762 h 79.97936 V 144.47812 H 58.979231 Z m 79.97936,-19.994856 1e-5,119.969054 H 258.92764 V 44.503922 Z m 19.99485,19.994856 h 79.97936 v 79.979358 h -79.97935 z m 79.97936,-19.994856 2e-5,119.969054 H 358.90186 V 44.503922 Z m 19.99486,19.994856 h 79.97936 v 79.979358 h -79.97936 z m 79.97936,-19.994856 1e-5,119.969054 H 458.87607 V 44.503922 Z m 19.99485,19.994856 h 79.97936 v 79.979358 h -79.97936 z m 79.97936,-19.994856 2e-5,119.969054 H 558.85029 V 44.503922 Z m 19.99486,19.994856 h 79.97936 v 79.979358 h -79.97936 z m 79.97936,-19.994856 10e-6,119.969054 H 658.8245 V 44.503922 Z m 19.99485,19.994856 h 79.97936 V 144.47812 H 558.8503 Z m 79.97936,-19.994856 10e-6,119.969054 H 758.79872 V 44.503922 Z m 19.99486,19.994856 h 79.97936 v 79.979358 h -79.97936 z m 79.97935,-19.994856 2e-5,119.969054 H 858.77293 V 44.503922 Z m 19.99486,19.994856 h 79.97936 v 79.979358 h -79.97936 z m 79.97936,-19.994856 10e-6,119.969054 H 958.74714 V 44.503922 Z m 19.99485,19.994856 h 79.97936 v 79.979358 h -79.97936 z m 79.97936,-19.994856 2e-5,119.969054 H 1058.7214 V 44.503922 Z m 19.99486,19.994856 h 79.97934 v 79.979358 h -79.97934 z m 79.97934,-19.994856 0,119.969054 h 119.9691 V 44.503922 Z m 19.9949,19.994856 h 79.9793 v 79.979358 h -79.9793 z m 79.9793,-19.994856 0,119.969054 h 119.9691 V 44.503922 Z m 19.9949,19.994856 h 79.9793 v 79.979358 h -79.9793 z m 79.9793,-19.994856 10e-5,119.969054 h 119.969 V 44.503922 Z m 19.9949,19.994856 h 79.9794 v 79.979358 h -79.9794 z m 79.9794,-19.994856 0,119.969054 h 119.969 V 44.503922 Z m 19.9948,19.994856 h 79.9794 v 79.979358 h -79.9794 z m 79.9794,-19.994856 0,119.969054 h 119.969 V 44.503922 Z m 19.9948,19.994856 h 79.9794 v 79.979358 h -79.9794 z m 79.9794,-19.994856 0,119.969054 h 119.969 V 44.503922 Z m 19.9948,19.994856 h 79.9794 v 79.979358 h -79.9794 z m 79.9794,-19.994856 0,119.969054 h 119.9691 V 44.503922 Z m 19.9949,19.994856 h 79.9793 v 79.979358 h -79.9793 z m 79.9793,-19.994856 0,119.969054 h 119.9691 V 44.503922 Z m 19.9949,19.994856 h 79.9793 v 79.979358 h -79.9793 z m 79.9793,-19.994856 0,119.969054 h 119.9691 V 44.503922 Z m 19.9949,19.994856 h 79.9793 v 79.979358 h -79.9793 z m 79.9793,-19.994856 10e-5,119.969054 h 119.969 V 44.503922 Z m 19.9949,19.994856 h 79.9794 v 79.979358 h -79.9794 z M 38.984375,144.47812 l 1.4e-5,119.96905 H 158.95343 V 144.47814 Z m 19.994855,19.99486 h 79.97936 v 79.97935 H 58.979231 Z m 79.97936,-19.99486 1e-5,119.96905 H 258.92764 V 144.47814 Z m 19.99485,19.99486 h 79.97936 v 79.97935 h -79.97935 z m 79.97936,-19.99486 2e-5,119.96905 H 358.90186 V 144.47814 Z m 19.99486,19.99486 h 79.97936 v 79.97935 h -79.97936 z m 79.97936,-19.99486 1e-5,119.96905 H 458.87607 V 144.47814 Z m 19.99485,19.99486 h 79.97936 v 79.97935 h -79.97936 z m 79.97936,-19.99486 2e-5,119.96905 H 558.85029 V 144.47814 Z m 19.99486,19.99486 h 79.97936 v 79.97935 h -79.97936 z m 79.97936,-19.99486 10e-6,119.96905 H 658.8245 V 144.47814 Z m 19.99485,19.99486 h 79.97936 v 79.97935 H 558.8503 Z m 79.97936,-19.99486 10e-6,119.96905 H 758.79872 V 144.47814 Z m 19.99486,19.99486 h 79.97936 v 79.97935 h -79.97936 z m 79.97935,-19.99486 2e-5,119.96905 H 858.77293 V 144.47814 Z m 19.99486,19.99486 h 79.97936 v 79.97935 h -79.97936 z m 79.97936,-19.99486 10e-6,119.96905 H 958.74714 V 144.47814 Z m 19.99485,19.99486 h 79.97936 v 79.97935 h -79.97936 z m 79.97936,-19.99486 2e-5,119.96905 H 1058.7214 V 144.47814 Z m 19.99486,19.99486 h 79.97934 v 79.97935 h -79.97934 z m 79.97934,-19.99486 0,119.96905 h 119.9691 V 144.47814 Z m 19.9949,19.99486 h 79.9793 v 79.97935 h -79.9793 z m 79.9793,-19.99486 0,119.96905 h 119.9691 V 144.47814 Z m 19.9949,19.99486 h 79.9793 v 79.97935 h -79.9793 z m 79.9793,-19.99486 10e-5,119.96905 h 119.969 V 144.47814 Z m 19.9949,19.99486 h 79.9794 v 79.97935 h -79.9794 z m 79.9794,-19.99486 0,119.96905 h 119.969 V 144.47814 Z m 19.9948,19.99486 h 79.9794 v 79.97935 h -79.9794 z m 79.9794,-19.99486 0,119.96905 h 119.969 V 144.47814 Z m 19.9948,19.99486 h 79.9794 v 79.97935 h -79.9794 z m 79.9794,-19.99486 0,119.96905 h 119.969 V 144.47814 Z m 19.9948,19.99486 h 79.9794 v 79.97935 h -79.9794 z m 79.9794,-19.99486 0,119.96905 h 119.9691 V 144.47814 Z m 19.9949,19.99486 h 79.9793 v 79.97935 h -79.9793 z m 79.9793,-19.99486 0,119.96905 h 119.9691 V 144.47814 Z m 19.9949,19.99486 h 79.9793 v 79.97935 h -79.9793 z m 79.9793,-19.99486 0,119.96905 h 119.9691 V 144.47814 Z m 19.9949,19.99486 h 79.9793 v 79.97935 h -79.9793 z m 79.9793,-19.99486 10e-5,119.96905 h 119.969 V 144.47814 Z m 19.9949,19.99486 h 79.9794 v 79.97935 h -79.9794 z m -1919.504925,79.97935 1.4e-5,119.96906 H 158.95343 V 244.45235 Z m 19.994855,19.99486 h 79.97936 v 79.97936 H 58.979231 Z m 79.97936,-19.99486 1e-5,119.96906 H 258.92764 V 244.45235 Z m 19.99485,19.99486 h 79.97936 v 79.97936 h -79.97935 z m 79.97936,-19.99486 2e-5,119.96906 H 358.90186 V 244.45235 Z m 19.99486,19.99486 h 79.97936 v 79.97936 h -79.97936 z m 79.97936,-19.99486 1e-5,119.96906 H 458.87607 V 244.45235 Z m 19.99485,19.99486 h 79.97936 v 79.97936 h -79.97936 z m 79.97936,-19.99486 2e-5,119.96906 H 558.85029 V 244.45235 Z m 19.99486,19.99486 h 79.97936 v 79.97936 h -79.97936 z m 79.97936,-19.99486 10e-6,119.96906 H 658.8245 V 244.45235 Z m 19.99485,19.99486 h 79.97936 v 79.97936 H 558.8503 Z m 79.97936,-19.99486 10e-6,119.96906 H 758.79872 V 244.45235 Z m 19.99486,19.99486 h 79.97936 v 79.97936 h -79.97936 z m 79.97935,-19.99486 2e-5,119.96906 H 858.77293 V 244.45235 Z m 19.99486,19.99486 h 79.97936 v 79.97936 h -79.97936 z m 79.97936,-19.99486 10e-6,119.96906 H 958.74714 V 244.45235 Z m 19.99485,19.99486 h 79.97936 v 79.97936 h -79.97936 z m 79.97936,-19.99486 2e-5,119.96906 H 1058.7214 V 244.45235 Z m 19.99486,19.99486 h 79.97934 v 79.97936 h -79.97934 z m 79.97934,-19.99486 0,119.96906 h 119.9691 V 244.45235 Z m 19.9949,19.99486 h 79.9793 v 79.97936 h -79.9793 z m 79.9793,-19.99486 0,119.96906 h 119.9691 V 244.45235 Z m 19.9949,19.99486 h 79.9793 v 79.97936 h -79.9793 z m 79.9793,-19.99486 10e-5,119.96906 h 119.969 V 244.45235 Z m 19.9949,19.99486 h 79.9794 v 79.97936 h -79.9794 z m 79.9794,-19.99486 0,119.96906 h 119.969 V 244.45235 Z m 19.9948,19.99486 h 79.9794 v 79.97936 h -79.9794 z m 79.9794,-19.99486 0,119.96906 h 119.969 V 244.45235 Z m 19.9948,19.99486 h 79.9794 v 79.97936 h -79.9794 z m 79.9794,-19.99486 0,119.96906 h 119.969 V 244.45235 Z m 19.9948,19.99486 h 79.9794 v 79.97936 h -79.9794 z m 79.9794,-19.99486 0,119.96906 h 119.9691 V 244.45235 Z m 19.9949,19.99486 h 79.9793 v 79.97936 h -79.9793 z m 79.9793,-19.99486 0,119.96906 h 119.9691 V 244.45235 Z m 19.9949,19.99486 h 79.9793 v 79.97936 h -79.9793 z m 79.9793,-19.99486 0,119.96906 h 119.9691 V 244.45235 Z m 19.9949,19.99486 h 79.9793 v 79.97936 h -79.9793 z m 79.9793,-19.99486 10e-5,119.96906 h 119.969 V 244.45235 Z m 19.9949,19.99486 h 79.9794 v 79.97936 h -79.9794 z M 38.984375,344.42655 38.984389,464.3956 H 158.95343 V 344.42656 Z M 58.97923,364.4214 h 79.97936 v 79.97936 H 58.979231 Z m 79.97936,-19.99485 1e-5,119.96905 H 258.92764 V 344.42656 Z m 19.99485,19.99485 h 79.97936 v 79.97936 h -79.97935 z m 79.97936,-19.99485 2e-5,119.96905 H 358.90186 V 344.42656 Z m 19.99486,19.99485 h 79.97936 v 79.97936 h -79.97936 z m 79.97936,-19.99485 1e-5,119.96905 H 458.87607 V 344.42656 Z m 19.99485,19.99485 h 79.97936 v 79.97936 h -79.97936 z m 79.97936,-19.99485 2e-5,119.96905 H 558.85029 V 344.42656 Z m 19.99486,19.99485 h 79.97936 v 79.97936 h -79.97936 z m 79.97936,-19.99485 10e-6,119.96905 H 658.8245 V 344.42656 Z m 19.99485,19.99485 h 79.97936 v 79.97936 H 558.8503 Z m 79.97936,-19.99485 10e-6,119.96905 H 758.79872 V 344.42656 Z m 19.99486,19.99485 h 79.97936 v 79.97936 h -79.97936 z m 79.97935,-19.99485 2e-5,119.96905 H 858.77293 V 344.42656 Z m 19.99486,19.99485 h 79.97936 v 79.97936 h -79.97936 z m 79.97936,-19.99485 10e-6,119.96905 H 958.74714 V 344.42656 Z m 19.99485,19.99485 h 79.97936 v 79.97936 h -79.97936 z m 79.97936,-19.99485 2e-5,119.96905 H 1058.7214 V 344.42656 Z m 19.99486,19.99485 h 79.97934 v 79.97936 h -79.97934 z m 79.97934,-19.99485 0,119.96905 h 119.9691 V 344.42656 Z m 19.9949,19.99485 h 79.9793 v 79.97936 h -79.9793 z m 79.9793,-19.99485 0,119.96905 h 119.9691 V 344.42656 Z m 19.9949,19.99485 h 79.9793 v 79.97936 h -79.9793 z m 79.9793,-19.99485 10e-5,119.96905 h 119.969 V 344.42656 Z m 19.9949,19.99485 h 79.9794 v 79.97936 h -79.9794 z m 79.9794,-19.99485 0,119.96905 h 119.969 V 344.42656 Z m 19.9948,19.99485 h 79.9794 v 79.97936 h -79.9794 z m 79.9794,-19.99485 0,119.96905 h 119.969 V 344.42656 Z m 19.9948,19.99485 h 79.9794 v 79.97936 h -79.9794 z m 79.9794,-19.99485 0,119.96905 h 119.969 V 344.42656 Z m 19.9948,19.99485 h 79.9794 v 79.97936 h -79.9794 z m 79.9794,-19.99485 0,119.96905 h 119.9691 V 344.42656 Z m 19.9949,19.99485 h 79.9793 v 79.97936 h -79.9793 z m 79.9793,-19.99485 0,119.96905 h 119.9691 V 344.42656 Z m 19.9949,19.99485 h 79.9793 v 79.97936 h -79.9793 z m 79.9793,-19.99485 0,119.96905 h 119.9691 V 344.42656 Z m 19.9949,19.99485 h 79.9793 v 79.97936 h -79.9793 z m 79.9793,-19.99485 10e-5,119.96905 h 119.969 V 344.42656 Z m 19.9949,19.99485 h 79.9794 v 79.97936 h -79.9794 z m -1919.504925,79.97936 1.4e-5,119.96905 H 158.95343 V 444.40077 Z m 19.994855,19.99485 h 79.97936 v 79.97936 H 58.979231 Z m 79.97936,-19.99485 1e-5,119.96905 H 258.92764 V 444.40077 Z m 19.99485,19.99485 h 79.97936 v 79.97936 h -79.97935 z m 79.97936,-19.99485 2e-5,119.96905 H 358.90186 V 444.40077 Z m 19.99486,19.99485 h 79.97936 v 79.97936 h -79.97936 z m 79.97936,-19.99485 1e-5,119.96905 H 458.87607 V 444.40077 Z m 19.99485,19.99485 h 79.97936 v 79.97936 h -79.97936 z m 79.97936,-19.99485 2e-5,119.96905 H 558.85029 V 444.40077 Z m 19.99486,19.99485 h 79.97936 v 79.97936 h -79.97936 z m 79.97936,-19.99485 10e-6,119.96905 H 658.8245 V 444.40077 Z m 19.99485,19.99485 h 79.97936 v 79.97936 H 558.8503 Z m 79.97936,-19.99485 10e-6,119.96905 H 758.79872 V 444.40077 Z m 19.99486,19.99485 h 79.97936 v 79.97936 h -79.97936 z m 79.97935,-19.99485 2e-5,119.96905 H 858.77293 V 444.40077 Z m 19.99486,19.99485 h 79.97936 v 79.97936 h -79.97936 z m 79.97936,-19.99485 10e-6,119.96905 H 958.74714 V 444.40077 Z m 19.99485,19.99485 h 79.97936 v 79.97936 h -79.97936 z m 79.97936,-19.99485 2e-5,119.96905 H 1058.7214 V 444.40077 Z m 19.99486,19.99485 h 79.97934 v 79.97936 h -79.97934 z m 79.97934,-19.99485 0,119.96905 h 119.9691 V 444.40077 Z m 19.9949,19.99485 h 79.9793 v 79.97936 h -79.9793 z m 79.9793,-19.99485 0,119.96905 h 119.9691 V 444.40077 Z m 19.9949,19.99485 h 79.9793 v 79.97936 h -79.9793 z m 79.9793,-19.99485 10e-5,119.96905 h 119.969 V 444.40077 Z m 19.9949,19.99485 h 79.9794 v 79.97936 h -79.9794 z m 79.9794,-19.99485 0,119.96905 h 119.969 V 444.40077 Z m 19.9948,19.99485 h 79.9794 v 79.97936 h -79.9794 z m 79.9794,-19.99485 0,119.96905 h 119.969 V 444.40077 Z m 19.9948,19.99485 h 79.9794 v 79.97936 h -79.9794 z m 79.9794,-19.99485 0,119.96905 h 119.969 V 444.40077 Z m 19.9948,19.99485 h 79.9794 v 79.97936 h -79.9794 z m 79.9794,-19.99485 0,119.96905 h 119.9691 V 444.40077 Z m 19.9949,19.99485 h 79.9793 v 79.97936 h -79.9793 z m 79.9793,-19.99485 0,119.96905 h 119.9691 V 444.40077 Z m 19.9949,19.99485 h 79.9793 v 79.97936 h -79.9793 z m 79.9793,-19.99485 0,119.96905 h 119.9691 V 444.40077 Z m 19.9949,19.99485 h 79.9793 v 79.97936 h -79.9793 z m 79.9793,-19.99485 10e-5,119.96905 h 119.969 V 444.40077 Z m 19.9949,19.99485 h 79.9794 v 79.97936 h -79.9794 z m -1919.504925,79.97936 1.4e-5,119.96906 H 158.95343 V 544.37499 Z m 19.994855,19.99486 h 79.97936 v 79.97936 H 58.979231 Z m 79.97936,-19.99486 1e-5,119.96906 H 258.92764 V 544.37499 Z m 19.99485,19.99486 h 79.97936 v 79.97936 h -79.97935 z m 79.97936,-19.99486 2e-5,119.96906 H 358.90186 V 544.37499 Z m 19.99486,19.99486 h 79.97936 v 79.97936 h -79.97936 z m 79.97936,-19.99486 1e-5,119.96906 H 458.87607 V 544.37499 Z m 19.99485,19.99486 h 79.97936 v 79.97936 h -79.97936 z m 79.97936,-19.99486 2e-5,119.96906 H 558.85029 V 544.37499 Z m 19.99486,19.99486 h 79.97936 v 79.97936 h -79.97936 z m 79.97936,-19.99486 10e-6,119.96906 H 658.8245 V 544.37499 Z m 19.99485,19.99486 h 79.97936 v 79.97936 H 558.8503 Z m 79.97936,-19.99486 10e-6,119.96906 H 758.79872 V 544.37499 Z m 19.99486,19.99486 h 79.97936 v 79.97936 h -79.97936 z m 79.97935,-19.99486 2e-5,119.96906 H 858.77293 V 544.37499 Z m 19.99486,19.99486 h 79.97936 v 79.97936 h -79.97936 z m 79.97936,-19.99486 10e-6,119.96906 H 958.74714 V 544.37499 Z m 19.99485,19.99486 h 79.97936 v 79.97936 h -79.97936 z m 79.97936,-19.99486 2e-5,119.96906 H 1058.7214 V 544.37499 Z m 19.99486,19.99486 h 79.97934 v 79.97936 h -79.97934 z m 79.97934,-19.99486 0,119.96906 h 119.9691 V 544.37499 Z m 19.9949,19.99486 h 79.9793 v 79.97936 h -79.9793 z m 79.9793,-19.99486 0,119.96906 h 119.9691 V 544.37499 Z m 19.9949,19.99486 h 79.9793 v 79.97936 h -79.9793 z m 79.9793,-19.99486 10e-5,119.96906 h 119.969 V 544.37499 Z m 19.9949,19.99486 h 79.9794 v 79.97936 h -79.9794 z m 79.9794,-19.99486 0,119.96906 h 119.969 V 544.37499 Z m 19.9948,19.99486 h 79.9794 v 79.97936 h -79.9794 z m 79.9794,-19.99486 0,119.96906 h 119.969 V 544.37499 Z m 19.9948,19.99486 h 79.9794 v 79.97936 h -79.9794 z m 79.9794,-19.99486 0,119.96906 h 119.969 V 544.37499 Z m 19.9948,19.99486 h 79.9794 v 79.97936 h -79.9794 z m 79.9794,-19.99486 0,119.96906 h 119.9691 V 544.37499 Z m 19.9949,19.99486 h 79.9793 v 79.97936 h -79.9793 z m 79.9793,-19.99486 0,119.96906 h 119.9691 V 544.37499 Z m 19.9949,19.99486 h 79.9793 v 79.97936 h -79.9793 z m 79.9793,-19.99486 0,119.96906 h 119.9691 V 544.37499 Z m 19.9949,19.99486 h 79.9793 v 79.97936 h -79.9793 z m 79.9793,-19.99486 10e-5,119.96906 h 119.969 V 544.37499 Z m 19.9949,19.99486 h 79.9794 v 79.97936 h -79.9794 z m -1919.504925,79.97936 1.4e-5,119.96905 H 158.95343 V 644.3492 Z m 19.994855,19.99485 h 79.97936 V 744.3234 H 58.979231 Z m 79.97936,-19.99485 1e-5,119.96905 H 258.92764 V 644.3492 Z m 19.99485,19.99485 h 79.97936 v 79.97936 h -79.97935 z m 79.97936,-19.99485 2e-5,119.96905 H 358.90186 V 644.3492 Z m 19.99486,19.99485 h 79.97936 v 79.97936 h -79.97936 z m 79.97936,-19.99485 1e-5,119.96905 H 458.87607 V 644.3492 Z m 19.99485,19.99485 h 79.97936 v 79.97936 h -79.97936 z m 79.97936,-19.99485 2e-5,119.96905 H 558.85029 V 644.3492 Z m 19.99486,19.99485 h 79.97936 v 79.97936 h -79.97936 z m 79.97936,-19.99485 10e-6,119.96905 H 658.8245 V 644.3492 Z m 19.99485,19.99485 h 79.97936 V 744.3234 H 558.8503 Z m 79.97936,-19.99485 10e-6,119.96905 H 758.79872 V 644.3492 Z m 19.99486,19.99485 h 79.97936 v 79.97936 h -79.97936 z m 79.97935,-19.99485 2e-5,119.96905 H 858.77293 V 644.3492 Z m 19.99486,19.99485 h 79.97936 v 79.97936 h -79.97936 z m 79.97936,-19.99485 10e-6,119.96905 H 958.74714 V 644.3492 Z m 19.99485,19.99485 h 79.97936 v 79.97936 h -79.97936 z m 79.97936,-19.99485 2e-5,119.96905 H 1058.7214 V 644.3492 Z m 19.99486,19.99485 h 79.97934 v 79.97936 h -79.97934 z m 79.97934,-19.99485 0,119.96905 h 119.9691 V 644.3492 Z m 19.9949,19.99485 h 79.9793 v 79.97936 h -79.9793 z m 79.9793,-19.99485 0,119.96905 h 119.9691 V 644.3492 Z m 19.9949,19.99485 h 79.9793 v 79.97936 h -79.9793 z m 79.9793,-19.99485 10e-5,119.96905 h 119.969 V 644.3492 Z m 19.9949,19.99485 h 79.9794 v 79.97936 h -79.9794 z m 79.9794,-19.99485 0,119.96905 h 119.969 V 644.3492 Z m 19.9948,19.99485 h 79.9794 v 79.97936 h -79.9794 z m 79.9794,-19.99485 0,119.96905 h 119.969 V 644.3492 Z m 19.9948,19.99485 h 79.9794 v 79.97936 h -79.9794 z m 79.9794,-19.99485 0,119.96905 h 119.969 V 644.3492 Z m 19.9948,19.99485 h 79.9794 v 79.97936 h -79.9794 z m 79.9794,-19.99485 0,119.96905 h 119.9691 V 644.3492 Z m 19.9949,19.99485 h 79.9793 v 79.97936 h -79.9793 z m 79.9793,-19.99485 0,119.96905 h 119.9691 V 644.3492 Z m 19.9949,19.99485 h 79.9793 v 79.97936 h -79.9793 z m 79.9793,-19.99485 0,119.96905 h 119.9691 V 644.3492 Z m 19.9949,19.99485 h 79.9793 v 79.97936 h -79.9793 z m 79.9793,-19.99485 10e-5,119.96905 h 119.969 V 644.3492 Z m 19.9949,19.99485 h 79.9794 v 79.97936 h -79.9794 z M 38.984375,744.3234 l 1.4e-5,119.96905 H 158.95343 V 744.32341 Z m 19.994855,19.99485 h 79.97936 v 79.97936 H 58.979231 Z m 79.97936,-19.99485 1e-5,119.96905 H 258.92764 V 744.32341 Z m 19.99485,19.99485 h 79.97936 v 79.97936 h -79.97935 z m 79.97936,-19.99485 2e-5,119.96905 H 358.90186 V 744.32341 Z m 19.99486,19.99485 h 79.97936 v 79.97936 h -79.97936 z m 79.97936,-19.99485 1e-5,119.96905 H 458.87607 V 744.32341 Z m 19.99485,19.99485 h 79.97936 v 79.97936 h -79.97936 z m 79.97936,-19.99485 2e-5,119.96905 H 558.85029 V 744.32341 Z m 19.99486,19.99485 h 79.97936 v 79.97936 h -79.97936 z m 79.97936,-19.99485 10e-6,119.96905 H 658.8245 V 744.32341 Z m 19.99485,19.99485 h 79.97936 v 79.97936 H 558.8503 Z m 79.97936,-19.99485 10e-6,119.96905 H 758.79872 V 744.32341 Z m 19.99486,19.99485 h 79.97936 v 79.97936 h -79.97936 z m 79.97935,-19.99485 2e-5,119.96905 H 858.77293 V 744.32341 Z m 19.99486,19.99485 h 79.97936 v 79.97936 h -79.97936 z m 79.97936,-19.99485 10e-6,119.96905 H 958.74714 V 744.32341 Z m 19.99485,19.99485 h 79.97936 v 79.97936 h -79.97936 z m 79.97936,-19.99485 2e-5,119.96905 H 1058.7214 V 744.32341 Z m 19.99486,19.99485 h 79.97934 v 79.97936 h -79.97934 z m 79.97934,-19.99485 0,119.96905 h 119.9691 V 744.32341 Z m 19.9949,19.99485 h 79.9793 v 79.97936 h -79.9793 z m 79.9793,-19.99485 0,119.96905 h 119.9691 V 744.32341 Z m 19.9949,19.99485 h 79.9793 v 79.97936 h -79.9793 z m 79.9793,-19.99485 10e-5,119.96905 h 119.969 V 744.32341 Z m 19.9949,19.99485 h 79.9794 v 79.97936 h -79.9794 z m 79.9794,-19.99485 0,119.96905 h 119.969 V 744.32341 Z m 19.9948,19.99485 h 79.9794 v 79.97936 h -79.9794 z m 79.9794,-19.99485 0,119.96905 h 119.969 V 744.32341 Z m 19.9948,19.99485 h 79.9794 v 79.97936 h -79.9794 z m 79.9794,-19.99485 0,119.96905 h 119.969 V 744.32341 Z m 19.9948,19.99485 h 79.9794 v 79.97936 h -79.9794 z m 79.9794,-19.99485 0,119.96905 h 119.9691 V 744.32341 Z m 19.9949,19.99485 h 79.9793 v 79.97936 h -79.9793 z m 79.9793,-19.99485 0,119.96905 h 119.9691 V 744.32341 Z m 19.9949,19.99485 h 79.9793 v 79.97936 h -79.9793 z m 79.9793,-19.99485 0,119.96905 h 119.9691 V 744.32341 Z m 19.9949,19.99485 h 79.9793 v 79.97936 h -79.9793 z m 79.9793,-19.99485 10e-5,119.96905 h 119.969 V 744.32341 Z m 19.9949,19.99485 h 79.9794 v 79.97936 h -79.9794 z m -1919.504925,79.97936 1.4e-5,119.96906 H 158.95343 V 844.29763 Z m 19.994855,19.99486 h 79.97936 v 79.97936 H 58.979231 Z m 79.97936,-19.99486 1e-5,119.96906 H 258.92764 V 844.29763 Z m 19.99485,19.99486 h 79.97936 v 79.97936 h -79.97935 z m 79.97936,-19.99486 2e-5,119.96906 H 358.90186 V 844.29763 Z m 19.99486,19.99486 h 79.97936 v 79.97936 h -79.97936 z m 79.97936,-19.99486 1e-5,119.96906 H 458.87607 V 844.29763 Z m 19.99485,19.99486 h 79.97936 v 79.97936 h -79.97936 z m 79.97936,-19.99486 2e-5,119.96906 H 558.85029 V 844.29763 Z m 19.99486,19.99486 h 79.97936 v 79.97936 h -79.97936 z m 79.97936,-19.99486 10e-6,119.96906 H 658.8245 V 844.29763 Z m 19.99485,19.99486 h 79.97936 v 79.97936 H 558.8503 Z m 79.97936,-19.99486 10e-6,119.96906 H 758.79872 V 844.29763 Z m 19.99486,19.99486 h 79.97936 v 79.97936 h -79.97936 z m 79.97935,-19.99486 2e-5,119.96906 H 858.77293 V 844.29763 Z m 19.99486,19.99486 h 79.97936 v 79.97936 h -79.97936 z m 79.97936,-19.99486 10e-6,119.96906 H 958.74714 V 844.29763 Z m 19.99485,19.99486 h 79.97936 v 79.97936 h -79.97936 z m 79.97936,-19.99486 2e-5,119.96906 H 1058.7214 V 844.29763 Z m 19.99486,19.99486 h 79.97934 v 79.97936 h -79.97934 z m 79.97934,-19.99486 0,119.96906 h 119.9691 V 844.29763 Z m 19.9949,19.99486 h 79.9793 v 79.97936 h -79.9793 z m 79.9793,-19.99486 0,119.96906 h 119.9691 V 844.29763 Z m 19.9949,19.99486 h 79.9793 v 79.97936 h -79.9793 z m 79.9793,-19.99486 10e-5,119.96906 h 119.969 V 844.29763 Z m 19.9949,19.99486 h 79.9794 v 79.97936 h -79.9794 z m 79.9794,-19.99486 0,119.96906 h 119.969 V 844.29763 Z m 19.9948,19.99486 h 79.9794 v 79.97936 h -79.9794 z m 79.9794,-19.99486 0,119.96906 h 119.969 V 844.29763 Z m 19.9948,19.99486 h 79.9794 v 79.97936 h -79.9794 z m 79.9794,-19.99486 0,119.96906 h 119.969 V 844.29763 Z m 19.9948,19.99486 h 79.9794 v 79.97936 h -79.9794 z m 79.9794,-19.99486 0,119.96906 h 119.9691 V 844.29763 Z m 19.9949,19.99486 h 79.9793 v 79.97936 h -79.9793 z m 79.9793,-19.99486 0,119.96906 h 119.9691 V 844.29763 Z m 19.9949,19.99486 h 79.9793 v 79.97936 h -79.9793 z m 79.9793,-19.99486 0,119.96906 h 119.9691 V 844.29763 Z m 19.9949,19.99486 h 79.9793 v 79.97936 h -79.9793 z m 79.9793,-19.99486 10e-5,119.96906 h 119.969 V 844.29763 Z m 19.9949,19.99486 h 79.9794 v 79.97936 h -79.9794 z m -1919.504925,79.97936 1.4e-5,119.96907 H 158.95343 V 944.27184 Z m 19.994855,19.99485 h 79.97936 V 1044.246 H 58.979231 Z m 79.97936,-19.99485 1e-5,119.96907 H 258.92764 V 944.27184 Z m 19.99485,19.99485 h 79.97936 v 79.97932 h -79.97935 z m 79.97936,-19.99485 2e-5,119.96907 H 358.90186 V 944.27184 Z m 19.99486,19.99485 h 79.97936 v 79.97932 h -79.97936 z m 79.97936,-19.99485 1e-5,119.96907 H 458.87607 V 944.27184 Z m 19.99485,19.99485 h 79.97936 v 79.97932 h -79.97936 z m 79.97936,-19.99485 2e-5,119.96907 H 558.85029 V 944.27184 Z m 19.99486,19.99485 h 79.97936 v 79.97932 h -79.97936 z m 79.97936,-19.99485 10e-6,119.96907 H 658.8245 V 944.27184 Z m 19.99485,19.99485 h 79.97936 V 1044.246 H 558.8503 Z m 79.97936,-19.99485 10e-6,119.96907 H 758.79872 V 944.27184 Z m 19.99486,19.99485 h 79.97936 v 79.97932 h -79.97936 z m 79.97935,-19.99485 2e-5,119.96907 H 858.77293 V 944.27184 Z m 19.99486,19.99485 h 79.97936 v 79.97932 h -79.97936 z m 79.97936,-19.99485 10e-6,119.96907 H 958.74714 V 944.27184 Z m 19.99485,19.99485 h 79.97936 v 79.97932 h -79.97936 z m 79.97936,-19.99485 2e-5,119.96907 H 1058.7214 V 944.27184 Z m 19.99486,19.99485 h 79.97934 v 79.97932 h -79.97934 z m 79.97934,-19.99485 0,119.96907 h 119.9691 V 944.27184 Z m 19.9949,19.99485 h 79.9793 v 79.97932 h -79.9793 z m 79.9793,-19.99485 0,119.96907 h 119.9691 V 944.27184 Z m 19.9949,19.99485 h 79.9793 v 79.97932 h -79.9793 z m 79.9793,-19.99485 10e-5,119.96907 h 119.969 V 944.27184 Z m 19.9949,19.99485 h 79.9794 v 79.97932 h -79.9794 z m 79.9794,-19.99485 0,119.96907 h 119.969 V 944.27184 Z m 19.9948,19.99485 h 79.9794 v 79.97932 h -79.9794 z m 79.9794,-19.99485 0,119.96907 h 119.969 V 944.27184 Z m 19.9948,19.99485 h 79.9794 v 79.97932 h -79.9794 z m 79.9794,-19.99485 0,119.96907 h 119.969 V 944.27184 Z m 19.9948,19.99485 h 79.9794 v 79.97932 h -79.9794 z m 79.9794,-19.99485 0,119.96907 h 119.9691 V 944.27184 Z m 19.9949,19.99485 h 79.9793 v 79.97932 h -79.9793 z m 79.9793,-19.99485 0,119.96907 h 119.9691 V 944.27184 Z m 19.9949,19.99485 h 79.9793 v 79.97932 h -79.9793 z m 79.9793,-19.99485 0,119.96907 h 119.9691 V 944.27184 Z m 19.9949,19.99485 h 79.9793 v 79.97932 h -79.9793 z m 79.9793,-19.99485 10e-5,119.96907 h 119.969 V 944.27184 Z m 19.9949,19.99485 h 79.9794 v 79.97932 h -79.9794 z M 38.984375,1044.246 l 1.4e-5,119.9691 H 158.95343 v -119.969 z m 19.994855,19.9949 h 79.97936 v 79.9794 H 58.979231 Z m 79.97936,-19.9949 1e-5,119.9691 h 119.96904 v -119.969 z m 19.99485,19.9949 h 79.97936 v 79.9794 h -79.97935 z m 79.97936,-19.9949 2e-5,119.9691 h 119.96904 v -119.969 z m 19.99486,19.9949 h 79.97936 v 79.9794 h -79.97936 z m 79.97936,-19.9949 1e-5,119.9691 h 119.96904 v -119.969 z m 19.99485,19.9949 h 79.97936 v 79.9794 h -79.97936 z m 79.97936,-19.9949 2e-5,119.9691 h 119.96904 v -119.969 z m 19.99486,19.9949 h 79.97936 v 79.9794 h -79.97936 z m 79.97936,-19.9949 10e-6,119.9691 H 658.8245 v -119.969 z m 19.99485,19.9949 h 79.97936 v 79.9794 H 558.8503 Z m 79.97936,-19.9949 10e-6,119.9691 h 119.96905 v -119.969 z m 19.99486,19.9949 h 79.97936 v 79.9794 h -79.97936 z m 79.97935,-19.9949 2e-5,119.9691 h 119.96904 v -119.969 z m 19.99486,19.9949 h 79.97936 v 79.9794 h -79.97936 z m 79.97936,-19.9949 10e-6,119.9691 h 119.96904 v -119.969 z m 19.99485,19.9949 h 79.97936 v 79.9794 h -79.97936 z m 79.97936,-19.9949 2e-5,119.9691 h 119.96908 v -119.969 z m 19.99486,19.9949 h 79.97934 v 79.9794 h -79.97934 z m 79.97934,-19.9949 0,119.9691 h 119.9691 v -119.969 z m 19.9949,19.9949 h 79.9793 v 79.9794 h -79.9793 z m 79.9793,-19.9949 0,119.9691 h 119.9691 v -119.969 z m 19.9949,19.9949 h 79.9793 v 79.9794 h -79.9793 z m 79.9793,-19.9949 10e-5,119.9691 h 119.969 v -119.969 z m 19.9949,19.9949 h 79.9794 v 79.9794 h -79.9794 z m 79.9794,-19.9949 0,119.9691 h 119.969 v -119.969 z m 19.9948,19.9949 h 79.9794 v 79.9794 h -79.9794 z m 79.9794,-19.9949 0,119.9691 h 119.969 v -119.969 z m 19.9948,19.9949 h 79.9794 v 79.9794 h -79.9794 z m 79.9794,-19.9949 0,119.9691 h 119.969 v -119.969 z m 19.9948,19.9949 h 79.9794 v 79.9794 h -79.9794 z m 79.9794,-19.9949 0,119.9691 h 119.9691 v -119.969 z m 19.9949,19.9949 h 79.9793 v 79.9794 h -79.9793 z m 79.9793,-19.9949 0,119.9691 h 119.9691 v -119.969 z m 19.9949,19.9949 h 79.9793 v 79.9794 h -79.9793 z m 79.9793,-19.9949 0,119.9691 h 119.9691 v -119.969 z m 19.9949,19.9949 h 79.9793 v 79.9794 h -79.9793 z m 79.9793,-19.9949 10e-5,119.9691 h 119.969 v -119.969 z m 19.9949,19.9949 h 79.9794 v 79.9794 h -79.9794 z m -1919.504925,79.9794 1.4e-5,119.969 H 158.95343 v -119.969 z m 19.994855,19.9948 h 79.97936 v 79.9794 H 58.979231 Z m 79.97936,-19.9948 1e-5,119.969 h 119.96904 v -119.969 z m 19.99485,19.9948 h 79.97936 v 79.9794 h -79.97935 z m 79.97936,-19.9948 2e-5,119.969 h 119.96904 v -119.969 z m 19.99486,19.9948 h 79.97936 v 79.9794 h -79.97936 z m 79.97936,-19.9948 1e-5,119.969 h 119.96904 v -119.969 z m 19.99485,19.9948 h 79.97936 v 79.9794 h -79.97936 z m 79.97936,-19.9948 2e-5,119.969 h 119.96904 v -119.969 z m 19.99486,19.9948 h 79.97936 v 79.9794 h -79.97936 z m 79.97936,-19.9948 10e-6,119.969 H 658.8245 v -119.969 z m 19.99485,19.9948 h 79.97936 v 79.9794 H 558.8503 Z m 79.97936,-19.9948 10e-6,119.969 h 119.96905 v -119.969 z m 19.99486,19.9948 h 79.97936 v 79.9794 h -79.97936 z m 79.97935,-19.9948 2e-5,119.969 h 119.96904 v -119.969 z m 19.99486,19.9948 h 79.97936 v 79.9794 h -79.97936 z m 79.97936,-19.9948 10e-6,119.969 h 119.96904 v -119.969 z m 19.99485,19.9948 h 79.97936 v 79.9794 h -79.97936 z m 79.97936,-19.9948 2e-5,119.969 h 119.96908 v -119.969 z m 19.99486,19.9948 h 79.97934 v 79.9794 h -79.97934 z m 79.97934,-19.9948 0,119.969 h 119.9691 v -119.969 z m 19.9949,19.9948 h 79.9793 v 79.9794 h -79.9793 z m 79.9793,-19.9948 0,119.969 h 119.9691 v -119.969 z m 19.9949,19.9948 h 79.9793 v 79.9794 h -79.9793 z m 79.9793,-19.9948 10e-5,119.969 h 119.969 v -119.969 z m 19.9949,19.9948 h 79.9794 v 79.9794 h -79.9794 z m 79.9794,-19.9948 0,119.969 h 119.969 v -119.969 z m 19.9948,19.9948 h 79.9794 v 79.9794 h -79.9794 z m 79.9794,-19.9948 0,119.969 h 119.969 v -119.969 z m 19.9948,19.9948 h 79.9794 v 79.9794 h -79.9794 z m 79.9794,-19.9948 0,119.969 h 119.969 v -119.969 z m 19.9948,19.9948 h 79.9794 v 79.9794 h -79.9794 z m 79.9794,-19.9948 0,119.969 h 119.9691 v -119.969 z m 19.9949,19.9948 h 79.9793 v 79.9794 h -79.9793 z m 79.9793,-19.9948 0,119.969 h 119.9691 v -119.969 z m 19.9949,19.9948 h 79.9793 v 79.9794 h -79.9793 z m 79.9793,-19.9948 0,119.969 h 119.9691 v -119.969 z m 19.9949,19.9948 h 79.9793 v 79.9794 h -79.9793 z m 79.9793,-19.9948 10e-5,119.969 h 119.969 v -119.969 z m 19.9949,19.9948 h 79.9794 v 79.9794 h -79.9794 z m -1919.504925,79.9794 1.4e-5,119.969 H 158.95343 v -119.969 z m 19.994855,19.9948 h 79.97936 v 79.9794 H 58.979231 Z m 79.97936,-19.9948 1e-5,119.969 h 119.96904 v -119.969 z m 19.99485,19.9948 h 79.97936 v 79.9794 h -79.97935 z m 79.97936,-19.9948 2e-5,119.969 h 119.96904 v -119.969 z m 19.99486,19.9948 h 79.97936 v 79.9794 h -79.97936 z m 79.97936,-19.9948 1e-5,119.969 h 119.96904 v -119.969 z m 19.99485,19.9948 h 79.97936 v 79.9794 h -79.97936 z m 79.97936,-19.9948 2e-5,119.969 h 119.96904 v -119.969 z m 19.99486,19.9948 h 79.97936 v 79.9794 h -79.97936 z m 79.97936,-19.9948 10e-6,119.969 H 658.8245 v -119.969 z m 19.99485,19.9948 h 79.97936 v 79.9794 H 558.8503 Z m 79.97936,-19.9948 10e-6,119.969 h 119.96905 v -119.969 z m 19.99486,19.9948 h 79.97936 v 79.9794 h -79.97936 z m 79.97935,-19.9948 2e-5,119.969 h 119.96904 v -119.969 z m 19.99486,19.9948 h 79.97936 v 79.9794 h -79.97936 z m 79.97936,-19.9948 10e-6,119.969 h 119.96904 v -119.969 z m 19.99485,19.9948 h 79.97936 v 79.9794 h -79.97936 z m 79.97936,-19.9948 2e-5,119.969 h 119.96908 v -119.969 z m 19.99486,19.9948 h 79.97934 v 79.9794 h -79.97934 z m 79.97934,-19.9948 0,119.969 h 119.9691 v -119.969 z m 19.9949,19.9948 h 79.9793 v 79.9794 h -79.9793 z m 79.9793,-19.9948 0,119.969 h 119.9691 v -119.969 z m 19.9949,19.9948 h 79.9793 v 79.9794 h -79.9793 z m 79.9793,-19.9948 10e-5,119.969 h 119.969 v -119.969 z m 19.9949,19.9948 h 79.9794 v 79.9794 h -79.9794 z m 79.9794,-19.9948 0,119.969 h 119.969 v -119.969 z m 19.9948,19.9948 h 79.9794 v 79.9794 h -79.9794 z m 79.9794,-19.9948 0,119.969 h 119.969 v -119.969 z m 19.9948,19.9948 h 79.9794 v 79.9794 h -79.9794 z m 79.9794,-19.9948 0,119.969 h 119.969 v -119.969 z m 19.9948,19.9948 h 79.9794 v 79.9794 h -79.9794 z m 79.9794,-19.9948 0,119.969 h 119.9691 v -119.969 z m 19.9949,19.9948 h 79.9793 v 79.9794 h -79.9793 z m 79.9793,-19.9948 0,119.969 h 119.9691 v -119.969 z m 19.9949,19.9948 h 79.9793 v 79.9794 h -79.9793 z m 79.9793,-19.9948 0,119.969 h 119.9691 v -119.969 z m 19.9949,19.9948 h 79.9793 v 79.9794 h -79.9793 z m 79.9793,-19.9948 10e-5,119.969 h 119.969 v -119.969 z m 19.9949,19.9948 h 79.9794 v 79.9794 h -79.9794 z m -1919.504925,79.9794 1.4e-5,119.969 H 158.95343 v -119.969 z m 19.994855,19.9948 h 79.97936 v 79.9794 H 58.979231 Z m 79.97936,-19.9948 1e-5,119.969 h 119.96904 v -119.969 z m 19.99485,19.9948 h 79.97936 v 79.9794 h -79.97935 z m 79.97936,-19.9948 2e-5,119.969 h 119.96904 v -119.969 z m 19.99486,19.9948 h 79.97936 v 79.9794 h -79.97936 z m 79.97936,-19.9948 1e-5,119.969 h 119.96904 v -119.969 z m 19.99485,19.9948 h 79.97936 v 79.9794 h -79.97936 z m 79.97936,-19.9948 2e-5,119.969 h 119.96904 v -119.969 z m 19.99486,19.9948 h 79.97936 v 79.9794 h -79.97936 z m 79.97936,-19.9948 10e-6,119.969 H 658.8245 v -119.969 z m 19.99485,19.9948 h 79.97936 v 79.9794 H 558.8503 Z m 79.97936,-19.9948 10e-6,119.969 h 119.96905 v -119.969 z m 19.99486,19.9948 h 79.97936 v 79.9794 h -79.97936 z m 79.97935,-19.9948 2e-5,119.969 h 119.96904 v -119.969 z m 19.99486,19.9948 h 79.97936 v 79.9794 h -79.97936 z m 79.97936,-19.9948 10e-6,119.969 h 119.96904 v -119.969 z m 19.99485,19.9948 h 79.97936 v 79.9794 h -79.97936 z m 79.97936,-19.9948 2e-5,119.969 h 119.96908 v -119.969 z m 19.99486,19.9948 h 79.97934 v 79.9794 h -79.97934 z m 79.97934,-19.9948 0,119.969 h 119.9691 v -119.969 z m 19.9949,19.9948 h 79.9793 v 79.9794 h -79.9793 z m 79.9793,-19.9948 0,119.969 h 119.9691 v -119.969 z m 19.9949,19.9948 h 79.9793 v 79.9794 h -79.9793 z m 79.9793,-19.9948 10e-5,119.969 h 119.969 v -119.969 z m 19.9949,19.9948 h 79.9794 v 79.9794 h -79.9794 z m 79.9794,-19.9948 0,119.969 h 119.969 v -119.969 z m 19.9948,19.9948 h 79.9794 v 79.9794 h -79.9794 z m 79.9794,-19.9948 0,119.969 h 119.969 v -119.969 z m 19.9948,19.9948 h 79.9794 v 79.9794 h -79.9794 z m 79.9794,-19.9948 0,119.969 h 119.969 v -119.969 z m 19.9948,19.9948 h 79.9794 v 79.9794 h -79.9794 z m 79.9794,-19.9948 0,119.969 h 119.9691 v -119.969 z m 19.9949,19.9948 h 79.9793 v 79.9794 h -79.9793 z m 79.9793,-19.9948 0,119.969 h 119.9691 v -119.969 z m 19.9949,19.9948 h 79.9793 v 79.9794 h -79.9793 z m 79.9793,-19.9948 0,119.969 h 119.9691 v -119.969 z m 19.9949,19.9948 h 79.9793 v 79.9794 h -79.9793 z m 79.9793,-19.9948 10e-5,119.969 h 119.969 v -119.969 z m 19.9949,19.9948 h 79.9794 v 79.9794 h -79.9794 z m -1919.504925,79.9794 1.4e-5,119.969 H 158.95343 v -119.969 z m 19.994855,19.9948 h 79.97936 v 79.9794 H 58.979231 Z m 79.97936,-19.9948 1e-5,119.969 h 119.96904 v -119.969 z m 19.99485,19.9948 h 79.97936 v 79.9794 h -79.97935 z m 79.97936,-19.9948 2e-5,119.969 h 119.96904 v -119.969 z m 19.99486,19.9948 h 79.97936 v 79.9794 h -79.97936 z m 79.97936,-19.9948 1e-5,119.969 h 119.96904 v -119.969 z m 19.99485,19.9948 h 79.97936 v 79.9794 h -79.97936 z m 79.97936,-19.9948 2e-5,119.969 h 119.96904 v -119.969 z m 19.99486,19.9948 h 79.97936 v 79.9794 h -79.97936 z m 79.97936,-19.9948 10e-6,119.969 H 658.8245 v -119.969 z m 19.99485,19.9948 h 79.97936 v 79.9794 H 558.8503 Z m 79.97936,-19.9948 10e-6,119.969 h 119.96905 v -119.969 z m 19.99486,19.9948 h 79.97936 v 79.9794 h -79.97936 z m 79.97935,-19.9948 2e-5,119.969 h 119.96904 v -119.969 z m 19.99486,19.9948 h 79.97936 v 79.9794 h -79.97936 z m 79.97936,-19.9948 10e-6,119.969 h 119.96904 v -119.969 z m 19.99485,19.9948 h 79.97936 v 79.9794 h -79.97936 z m 79.97936,-19.9948 2e-5,119.969 h 119.96908 v -119.969 z m 19.99486,19.9948 h 79.97934 v 79.9794 h -79.97934 z m 79.97934,-19.9948 0,119.969 h 119.9691 v -119.969 z m 19.9949,19.9948 h 79.9793 v 79.9794 h -79.9793 z m 79.9793,-19.9948 0,119.969 h 119.9691 v -119.969 z m 19.9949,19.9948 h 79.9793 v 79.9794 h -79.9793 z m 79.9793,-19.9948 10e-5,119.969 h 119.969 v -119.969 z m 19.9949,19.9948 h 79.9794 v 79.9794 h -79.9794 z m 79.9794,-19.9948 0,119.969 h 119.969 v -119.969 z m 19.9948,19.9948 h 79.9794 v 79.9794 h -79.9794 z m 79.9794,-19.9948 0,119.969 h 119.969 v -119.969 z m 19.9948,19.9948 h 79.9794 v 79.9794 h -79.9794 z m 79.9794,-19.9948 0,119.969 h 119.969 v -119.969 z m 19.9948,19.9948 h 79.9794 v 79.9794 h -79.9794 z m 79.9794,-19.9948 0,119.969 h 119.9691 v -119.969 z m 19.9949,19.9948 h 79.9793 v 79.9794 h -79.9793 z m 79.9793,-19.9948 0,119.969 h 119.9691 v -119.969 z m 19.9949,19.9948 h 79.9793 v 79.9794 h -79.9793 z m 79.9793,-19.9948 0,119.969 h 119.9691 v -119.969 z m 19.9949,19.9948 h 79.9793 v 79.9794 h -79.9793 z m 79.9793,-19.9948 10e-5,119.969 h 119.969 v -119.969 z m 19.9949,19.9948 h 79.9794 v 79.9794 h -79.9794 z m -1919.504925,79.9794 1.4e-5,119.9691 H 158.95343 v -119.9691 z m 19.994855,19.9949 h 79.97936 v 79.9793 H 58.979231 Z m 79.97936,-19.9949 1e-5,119.9691 h 119.96904 v -119.9691 z m 19.99485,19.9949 h 79.97936 v 79.9793 h -79.97935 z m 79.97936,-19.9949 2e-5,119.9691 h 119.96904 v -119.9691 z m 19.99486,19.9949 h 79.97936 v 79.9793 h -79.97936 z m 79.97936,-19.9949 1e-5,119.9691 h 119.96904 v -119.9691 z m 19.99485,19.9949 h 79.97936 v 79.9793 h -79.97936 z m 79.97936,-19.9949 2e-5,119.9691 h 119.96904 v -119.9691 z m 19.99486,19.9949 h 79.97936 v 79.9793 h -79.97936 z m 79.97936,-19.9949 10e-6,119.9691 H 658.8245 v -119.9691 z m 19.99485,19.9949 h 79.97936 v 79.9793 H 558.8503 Z m 79.97936,-19.9949 10e-6,119.9691 h 119.96905 v -119.9691 z m 19.99486,19.9949 h 79.97936 v 79.9793 h -79.97936 z m 79.97935,-19.9949 2e-5,119.9691 h 119.96904 v -119.9691 z m 19.99486,19.9949 h 79.97936 v 79.9793 h -79.97936 z m 79.97936,-19.9949 10e-6,119.9691 h 119.96904 v -119.9691 z m 19.99485,19.9949 h 79.97936 v 79.9793 h -79.97936 z m 79.97936,-19.9949 2e-5,119.9691 h 119.96908 v -119.9691 z m 19.99486,19.9949 h 79.97934 v 79.9793 h -79.97934 z m 79.97934,-19.9949 0,119.9691 h 119.9691 v -119.9691 z m 19.9949,19.9949 h 79.9793 v 79.9793 h -79.9793 z m 79.9793,-19.9949 0,119.9691 h 119.9691 v -119.9691 z m 19.9949,19.9949 h 79.9793 v 79.9793 h -79.9793 z m 79.9793,-19.9949 10e-5,119.9691 h 119.969 v -119.9691 z m 19.9949,19.9949 h 79.9794 v 79.9793 h -79.9794 z m 79.9794,-19.9949 0,119.9691 h 119.969 v -119.9691 z m 19.9948,19.9949 h 79.9794 v 79.9793 h -79.9794 z m 79.9794,-19.9949 0,119.9691 h 119.969 v -119.9691 z m 19.9948,19.9949 h 79.9794 v 79.9793 h -79.9794 z m 79.9794,-19.9949 0,119.9691 h 119.969 v -119.9691 z m 19.9948,19.9949 h 79.9794 v 79.9793 h -79.9794 z m 79.9794,-19.9949 0,119.9691 h 119.9691 v -119.9691 z m 19.9949,19.9949 h 79.9793 v 79.9793 h -79.9793 z m 79.9793,-19.9949 0,119.9691 h 119.9691 v -119.9691 z m 19.9949,19.9949 h 79.9793 v 79.9793 h -79.9793 z m 79.9793,-19.9949 0,119.9691 h 119.9691 v -119.9691 z m 19.9949,19.9949 h 79.9793 v 79.9793 h -79.9793 z m 79.9793,-19.9949 10e-5,119.9691 h 119.969 v -119.9691 z m 19.9949,19.9949 h 79.9794 v 79.9793 h -79.9794 z m -1919.504925,79.9793 1.4e-5,119.9691 H 158.95343 v -119.9691 z m 19.994855,19.9949 h 79.97936 v 79.9793 H 58.979231 Z m 79.97936,-19.9949 1e-5,119.9691 h 119.96904 v -119.9691 z m 19.99485,19.9949 h 79.97936 v 79.9793 h -79.97935 z m 79.97936,-19.9949 2e-5,119.9691 h 119.96904 v -119.9691 z m 19.99486,19.9949 h 79.97936 v 79.9793 h -79.97936 z m 79.97936,-19.9949 1e-5,119.9691 h 119.96904 v -119.9691 z m 19.99485,19.9949 h 79.97936 v 79.9793 h -79.97936 z m 79.97936,-19.9949 2e-5,119.9691 h 119.96904 v -119.9691 z m 19.99486,19.9949 h 79.97936 v 79.9793 h -79.97936 z m 79.97936,-19.9949 10e-6,119.9691 H 658.8245 v -119.9691 z m 19.99485,19.9949 h 79.97936 v 79.9793 H 558.8503 Z m 79.97936,-19.9949 10e-6,119.9691 h 119.96905 v -119.9691 z m 19.99486,19.9949 h 79.97936 v 79.9793 h -79.97936 z m 79.97935,-19.9949 2e-5,119.9691 h 119.96904 v -119.9691 z m 19.99486,19.9949 h 79.97936 v 79.9793 h -79.97936 z m 79.97936,-19.9949 10e-6,119.9691 h 119.96904 v -119.9691 z m 19.99485,19.9949 h 79.97936 v 79.9793 h -79.97936 z m 79.97936,-19.9949 2e-5,119.9691 h 119.96908 v -119.9691 z m 19.99486,19.9949 h 79.97934 v 79.9793 h -79.97934 z m 79.97934,-19.9949 0,119.9691 h 119.9691 v -119.9691 z m 19.9949,19.9949 h 79.9793 v 79.9793 h -79.9793 z m 79.9793,-19.9949 0,119.9691 h 119.9691 v -119.9691 z m 19.9949,19.9949 h 79.9793 v 79.9793 h -79.9793 z m 79.9793,-19.9949 10e-5,119.9691 h 119.969 v -119.9691 z m 19.9949,19.9949 h 79.9794 v 79.9793 h -79.9794 z m 79.9794,-19.9949 0,119.9691 h 119.969 v -119.9691 z m 19.9948,19.9949 h 79.9794 v 79.9793 h -79.9794 z m 79.9794,-19.9949 0,119.9691 h 119.969 v -119.9691 z m 19.9948,19.9949 h 79.9794 v 79.9793 h -79.9794 z m 79.9794,-19.9949 0,119.9691 h 119.969 v -119.9691 z m 19.9948,19.9949 h 79.9794 v 79.9793 h -79.9794 z m 79.9794,-19.9949 0,119.9691 h 119.9691 v -119.9691 z m 19.9949,19.9949 h 79.9793 v 79.9793 h -79.9793 z m 79.9793,-19.9949 0,119.9691 h 119.9691 v -119.9691 z m 19.9949,19.9949 h 79.9793 v 79.9793 h -79.9793 z m 79.9793,-19.9949 0,119.9691 h 119.9691 v -119.9691 z m 19.9949,19.9949 h 79.9793 v 79.9793 h -79.9793 z m 79.9793,-19.9949 10e-5,119.9691 h 119.969 v -119.9691 z m 19.9949,19.9949 h 79.9794 v 79.9793 h -79.9794 z m -1919.504925,79.9793 1.4e-5,119.9691 H 158.95343 v -119.9691 z m 19.994855,19.9949 h 79.97936 v 79.9793 H 58.979231 Z m 79.97936,-19.9949 1e-5,119.9691 h 119.96904 v -119.9691 z m 19.99485,19.9949 h 79.97936 v 79.9793 h -79.97935 z m 79.97936,-19.9949 2e-5,119.9691 h 119.96904 v -119.9691 z m 19.99486,19.9949 h 79.97936 v 79.9793 h -79.97936 z m 79.97936,-19.9949 1e-5,119.9691 h 119.96904 v -119.9691 z m 19.99485,19.9949 h 79.97936 v 79.9793 h -79.97936 z m 79.97936,-19.9949 2e-5,119.9691 h 119.96904 v -119.9691 z m 19.99486,19.9949 h 79.97936 v 79.9793 h -79.97936 z m 79.97936,-19.9949 10e-6,119.9691 H 658.8245 v -119.9691 z m 19.99485,19.9949 h 79.97936 v 79.9793 H 558.8503 Z m 79.97936,-19.9949 10e-6,119.9691 h 119.96905 v -119.9691 z m 19.99486,19.9949 h 79.97936 v 79.9793 h -79.97936 z m 79.97935,-19.9949 2e-5,119.9691 h 119.96904 v -119.9691 z m 19.99486,19.9949 h 79.97936 v 79.9793 h -79.97936 z m 79.97936,-19.9949 10e-6,119.9691 h 119.96904 v -119.9691 z m 19.99485,19.9949 h 79.97936 v 79.9793 h -79.97936 z m 79.97936,-19.9949 2e-5,119.9691 h 119.96908 v -119.9691 z m 19.99486,19.9949 h 79.97934 v 79.9793 h -79.97934 z m 79.97934,-19.9949 0,119.9691 h 119.9691 v -119.9691 z m 19.9949,19.9949 h 79.9793 v 79.9793 h -79.9793 z m 79.9793,-19.9949 0,119.9691 h 119.9691 v -119.9691 z m 19.9949,19.9949 h 79.9793 v 79.9793 h -79.9793 z m 79.9793,-19.9949 10e-5,119.9691 h 119.969 v -119.9691 z m 19.9949,19.9949 h 79.9794 v 79.9793 h -79.9794 z m 79.9794,-19.9949 0,119.9691 h 119.969 v -119.9691 z m 19.9948,19.9949 h 79.9794 v 79.9793 h -79.9794 z m 79.9794,-19.9949 0,119.9691 h 119.969 v -119.9691 z m 19.9948,19.9949 h 79.9794 v 79.9793 h -79.9794 z m 79.9794,-19.9949 0,119.9691 h 119.969 v -119.9691 z m 19.9948,19.9949 h 79.9794 v 79.9793 h -79.9794 z m 79.9794,-19.9949 0,119.9691 h 119.9691 v -119.9691 z m 19.9949,19.9949 h 79.9793 v 79.9793 h -79.9793 z m 79.9793,-19.9949 0,119.9691 h 119.9691 v -119.9691 z m 19.9949,19.9949 h 79.9793 v 79.9793 h -79.9793 z m 79.9793,-19.9949 0,119.9691 h 119.9691 v -119.9691 z m 19.9949,19.9949 h 79.9793 v 79.9793 h -79.9793 z m 79.9793,-19.9949 10e-5,119.9691 h 119.969 v -119.9691 z m 19.9949,19.9949 h 79.9794 v 79.9793 h -79.9794 z m -1919.504925,79.9793 1.4e-5,119.9691 H 158.95343 v -119.969 z m 19.994855,19.9949 h 79.97936 v 79.9794 H 58.979231 Z m 79.97936,-19.9949 1e-5,119.9691 h 119.96904 v -119.969 z m 19.99485,19.9949 h 79.97936 v 79.9794 h -79.97935 z m 79.97936,-19.9949 2e-5,119.9691 h 119.96904 v -119.969 z m 19.99486,19.9949 h 79.97936 v 79.9794 h -79.97936 z m 79.97936,-19.9949 1e-5,119.9691 h 119.96904 v -119.969 z m 19.99485,19.9949 h 79.97936 v 79.9794 h -79.97936 z m 79.97936,-19.9949 2e-5,119.9691 h 119.96904 v -119.969 z m 19.99486,19.9949 h 79.97936 v 79.9794 h -79.97936 z m 79.97936,-19.9949 10e-6,119.9691 H 658.8245 v -119.969 z m 19.99485,19.9949 h 79.97936 v 79.9794 H 558.8503 Z m 79.97936,-19.9949 10e-6,119.9691 h 119.96905 v -119.969 z m 19.99486,19.9949 h 79.97936 v 79.9794 h -79.97936 z m 79.97935,-19.9949 2e-5,119.9691 h 119.96904 v -119.969 z m 19.99486,19.9949 h 79.97936 v 79.9794 h -79.97936 z m 79.97936,-19.9949 10e-6,119.9691 h 119.96904 v -119.969 z m 19.99485,19.9949 h 79.97936 v 79.9794 h -79.97936 z m 79.97936,-19.9949 2e-5,119.9691 h 119.96908 v -119.969 z m 19.99486,19.9949 h 79.97934 v 79.9794 h -79.97934 z m 79.97934,-19.9949 0,119.9691 h 119.9691 v -119.969 z m 19.9949,19.9949 h 79.9793 v 79.9794 h -79.9793 z m 79.9793,-19.9949 0,119.9691 h 119.9691 v -119.969 z m 19.9949,19.9949 h 79.9793 v 79.9794 h -79.9793 z m 79.9793,-19.9949 10e-5,119.9691 h 119.969 v -119.969 z m 19.9949,19.9949 h 79.9794 v 79.9794 h -79.9794 z m 79.9794,-19.9949 0,119.9691 h 119.969 v -119.969 z m 19.9948,19.9949 h 79.9794 v 79.9794 h -79.9794 z m 79.9794,-19.9949 0,119.9691 h 119.969 v -119.969 z m 19.9948,19.9949 h 79.9794 v 79.9794 h -79.9794 z m 79.9794,-19.9949 0,119.9691 h 119.969 v -119.969 z m 19.9948,19.9949 h 79.9794 v 79.9794 h -79.9794 z m 79.9794,-19.9949 0,119.9691 h 119.9691 v -119.969 z m 19.9949,19.9949 h 79.9793 v 79.9794 h -79.9793 z m 79.9793,-19.9949 0,119.9691 h 119.9691 v -119.969 z m 19.9949,19.9949 h 79.9793 v 79.9794 h -79.9793 z m 79.9793,-19.9949 0,119.9691 h 119.9691 v -119.969 z m 19.9949,19.9949 h 79.9793 v 79.9794 h -79.9793 z m 79.9793,-19.9949 10e-5,119.9691 h 119.969 v -119.969 z m 19.9949,19.9949 h 79.9794 v 79.9794 h -79.9794 z m -1919.504925,79.9794 1.4e-5,119.969 H 158.95343 v -119.969 z m 19.994855,19.9948 h 79.97936 v 79.9794 H 58.979231 Z m 79.97936,-19.9948 1e-5,119.969 h 119.96904 v -119.969 z m 19.99485,19.9948 h 79.97936 v 79.9794 h -79.97935 z m 79.97936,-19.9948 2e-5,119.969 h 119.96904 v -119.969 z m 19.99486,19.9948 h 79.97936 v 79.9794 h -79.97936 z m 79.97936,-19.9948 1e-5,119.969 h 119.96904 v -119.969 z m 19.99485,19.9948 h 79.97936 v 79.9794 h -79.97936 z m 79.97936,-19.9948 2e-5,119.969 h 119.96904 v -119.969 z m 19.99486,19.9948 h 79.97936 v 79.9794 h -79.97936 z m 79.97936,-19.9948 10e-6,119.969 H 658.8245 v -119.969 z m 19.99485,19.9948 h 79.97936 v 79.9794 H 558.8503 Z m 79.97936,-19.9948 10e-6,119.969 h 119.96905 v -119.969 z m 19.99486,19.9948 h 79.97936 v 79.9794 h -79.97936 z m 79.97935,-19.9948 2e-5,119.969 h 119.96904 v -119.969 z m 19.99486,19.9948 h 79.97936 v 79.9794 h -79.97936 z m 79.97936,-19.9948 10e-6,119.969 h 119.96904 v -119.969 z m 19.99485,19.9948 h 79.97936 v 79.9794 h -79.97936 z m 79.97936,-19.9948 2e-5,119.969 h 119.96908 v -119.969 z m 19.99486,19.9948 h 79.97934 v 79.9794 h -79.97934 z m 79.97934,-19.9948 0,119.969 h 119.9691 v -119.969 z m 19.9949,19.9948 h 79.9793 v 79.9794 h -79.9793 z m 79.9793,-19.9948 0,119.969 h 119.9691 v -119.969 z m 19.9949,19.9948 h 79.9793 v 79.9794 h -79.9793 z m 79.9793,-19.9948 10e-5,119.969 h 119.969 v -119.969 z m 19.9949,19.9948 h 79.9794 v 79.9794 h -79.9794 z m 79.9794,-19.9948 0,119.969 h 119.969 v -119.969 z m 19.9948,19.9948 h 79.9794 v 79.9794 h -79.9794 z m 79.9794,-19.9948 0,119.969 h 119.969 v -119.969 z m 19.9948,19.9948 h 79.9794 v 79.9794 h -79.9794 z m 79.9794,-19.9948 0,119.969 h 119.969 v -119.969 z m 19.9948,19.9948 h 79.9794 v 79.9794 h -79.9794 z m 79.9794,-19.9948 0,119.969 h 119.9691 v -119.969 z m 19.9949,19.9948 h 79.9793 v 79.9794 h -79.9793 z m 79.9793,-19.9948 0,119.969 h 119.9691 v -119.969 z m 19.9949,19.9948 h 79.9793 v 79.9794 h -79.9793 z m 79.9793,-19.9948 0,119.969 h 119.9691 v -119.969 z m 19.9949,19.9948 h 79.9793 v 79.9794 h -79.9793 z m 79.9793,-19.9948 10e-5,119.969 h 119.969 v -119.969 z m 19.9949,19.9948 h 79.9794 v 79.9794 h -79.9794 z"
       id="rect1"
       transform="matrix(0.01323258,0,0,0.01323258,-1.0450305,-1.1180682)"
       sodipodi:nodetypes="cccccccccc"
       inkscape:label="single-grid-square"
       inkscape:path-effect="#path-effect3"
       inkscape:original-d="m 38.984375,44.503906 1.4e-5,119.969054 H 158.95343 V 44.503922 Z M 58.97923,64.498762 h 79.97936 V 144.47812 H 58.979231 Z" />
  </g>
</svg>
